<svg width="751" height="539" viewBox="0 0 751 539" fill="none" xmlns="http://www.w3.org/2000/svg">
<path d="M750.552 323.226C750.659 417.191 694.733 450.064 625.697 450.142C556.661 450.221 500.66 417.476 500.552 323.511C500.445 229.546 625.309 109.865 625.309 109.865C625.309 109.865 750.445 229.261 750.552 323.226Z" fill="#F2F2F2"/>
<path d="M621.452 436.088L622.634 357.37L675.48 259.927L622.82 345.022L623.351 309.627L659.768 239.13L623.491 300.26L623.491 300.261L624.448 236.601L663.467 180.465L624.598 226.591L625.108 109.865L621.245 264.393L621.569 258.018L581.764 196.928L620.946 270.256L617.325 341.355L617.212 339.468L571.331 275.183L617.081 346.134L616.628 355.026L616.545 355.16L616.584 355.89L607.397 536.274L619.947 536.26L621.346 443.092L666.823 372.21L621.452 436.088Z" fill="#3F3D56"/>
<path d="M68.7868 480.515C68.8156 505.828 53.5909 514.684 34.798 514.705C16.005 514.726 0.76012 505.905 0.731249 480.592C0.702378 455.279 34.6934 423.038 34.6934 423.038C34.6934 423.038 68.7579 455.202 68.7868 480.515Z" fill="#F2F2F2"/>
<path d="M33.526 509.847L33.8405 488.565L47.9326 462.22L33.89 485.226L34.0316 475.657L43.7428 456.597L34.0693 473.124L34.3238 455.913L44.7291 440.737L34.3643 453.207L34.4996 421.65L33.47 463.427L33.5559 461.704L22.941 445.187L33.39 465.012L32.4248 484.234L32.395 483.725L20.1595 466.344L32.3594 485.527L32.239 487.931L32.2173 487.967L32.2272 488.164L29.7777 536.933L33.1249 536.929L33.4973 511.74L45.625 492.577L33.526 509.847Z" fill="#3F3D56"/>
<path d="M4.96307 537.656L684.129 536.881" stroke="#3F3D56" stroke-width="2"/>
<path d="M685.492 514.289C685.512 531.548 675.259 537.586 662.602 537.6C662.309 537.601 662.016 537.598 661.724 537.592C661.138 537.58 660.557 537.552 659.983 537.514C648.559 536.719 639.677 530.392 639.659 514.341C639.64 497.73 660.843 476.746 662.436 475.193L662.439 475.19C662.5 475.13 662.531 475.1 662.531 475.1C662.531 475.1 685.473 497.03 685.492 514.289Z" fill="#111B47"/>
<path d="M661.504 534.971L669.973 523.247L661.485 536.257L661.464 537.602C660.87 537.59 660.282 537.563 659.701 537.524L660.596 520.253L660.589 520.119L660.604 520.094L660.689 518.463L652.149 505.441L660.714 517.239L660.734 517.586L661.41 504.536L654.097 491.079L661.497 502.246L662.185 475.193L662.188 475.101L662.188 475.19L662.092 496.523L669.348 488.057L662.064 498.36L661.886 510.043L668.657 498.823L661.859 511.762L661.759 518.257L671.59 502.641L661.725 520.524L661.504 534.971Z" fill="#3F3D56"/>
<rect x="435.045" y="122.582" width="8.33333" height="65.2778" rx="2.29166" transform="rotate(-0.0653494 435.045 122.582)" fill="#3F3D56"/>
<rect x="172.487" y="71.4922" width="4.16667" height="20.8333" rx="1.50327" transform="rotate(-0.0653494 172.487 71.4922)" fill="#3F3D56"/>
<rect x="172.531" y="110.381" width="5.55556" height="37.5" rx="1.6946" transform="rotate(-0.0653494 172.531 110.381)" fill="#3F3D56"/>
<rect x="172.59" y="161.77" width="4.16667" height="37.5" rx="1.6126" transform="rotate(-0.0653494 172.59 161.77)" fill="#3F3D56"/>
<rect x="175.184" y="0.655762" width="263.889" height="536.111" rx="35.694" transform="rotate(-0.0653494 175.184 0.655762)" fill="#3F3D56"/>
<rect x="280.758" y="17.2021" width="37.5" height="6.94445" rx="2.54189" transform="rotate(-0.0653494 280.758 17.2021)" fill="#E6E8EC"/>
<path d="M327.989 24.0927C330.29 24.0901 332.153 22.2225 332.15 19.9213C332.148 17.6201 330.28 15.7568 327.979 15.7594C325.678 15.762 323.815 17.6296 323.817 19.9308C323.82 22.232 325.687 24.0954 327.989 24.0927Z" fill="#E6E8EC"/>
<path d="M423.835 35.2187L424.367 501.644C424.378 513.216 414.978 522.607 403.372 522.618L213.464 522.834C201.859 522.85 192.438 513.481 192.422 501.908L191.89 35.4832C191.884 29.9247 194.092 24.5912 198.029 20.6563C201.966 16.7213 207.31 14.5073 212.885 14.5014L241.303 14.469L241.307 18.1085C241.32 27.6383 249.076 35.3541 258.633 35.3459L355.213 35.2358C364.771 35.2249 372.511 27.4898 372.5 17.9589L372.496 14.3194L402.793 14.2848C408.367 14.278 413.716 16.4798 417.662 20.4057C421.608 24.3317 423.829 29.6602 423.835 35.2187Z" fill="white"/>
<rect x="191.99" y="122.859" width="231.944" height="266.667" transform="rotate(-0.0653494 191.99 122.859)" fill="#F2F2F2"/>
<path d="M209.002 425.617L207.792 424.536C203.497 420.628 200.661 418.092 200.657 414.928C200.634 413.712 201.108 412.539 201.97 411.675C202.833 410.812 204.01 410.332 205.235 410.344C206.683 410.35 208.055 410.988 208.987 412.088C209.916 410.986 211.286 410.345 212.734 410.336C213.959 410.32 215.137 410.798 216.002 411.659C216.866 412.521 217.343 413.693 217.322 414.909C217.326 418.073 214.496 420.616 210.209 424.533L209.002 425.617Z" fill="#FF6584"/>
<path d="M252.054 422.148L254.463 422.788C255.334 420.423 257.396 418.61 259.978 417.942C262.559 417.274 265.327 417.835 267.378 419.444L263.703 422.777L272.888 422.767L272.878 414.433L269.18 417.749C266.49 415.552 262.797 414.762 259.35 415.648C255.902 416.533 253.162 418.975 252.054 422.148L252.054 422.148Z" fill="#F2F2F2"/>
<path d="M206.551 103.398C212.304 103.391 216.962 98.722 216.956 92.9691C216.949 87.2161 212.28 82.5577 206.527 82.5643C200.774 82.5709 196.116 87.2399 196.123 92.9928C196.129 98.7458 200.798 103.404 206.551 103.398Z" fill="#111B47"/>
<rect x="225.282" y="86.71" width="100" height="12.5" transform="rotate(-0.0653494 225.282 86.71)" fill="#111B47"/>
<rect x="199.3" y="443.684" width="100" height="12.5" transform="rotate(-0.0653494 199.3 443.684)" fill="#F2F2F2"/>
<rect x="200.719" y="470.071" width="209.722" height="12.5" transform="rotate(-0.0653494 200.719 470.071)" fill="#F2F2F2"/>
<path d="M242.335 425.579L239.769 421.017C241.032 417.919 239.863 414.346 237.027 412.639C234.192 410.931 230.555 411.609 228.498 414.229C226.441 416.848 226.59 420.611 228.849 423.053C231.107 425.495 234.786 425.871 237.477 423.936L242.335 425.579Z" fill="#F2F2F2"/>
<path d="M287.276 184.487L287.276 184.487C279.354 186.134 272.404 190.893 267.956 197.717C263.507 204.541 261.924 212.87 263.555 220.873L269.884 251.937L276.929 250.472L277.423 247.179L278.902 250.062L321.734 241.156L322.227 237.863L323.706 240.746L329.623 239.515L323.294 208.452C321.663 200.449 316.952 193.428 310.198 188.934C303.443 184.439 295.198 182.84 287.276 184.487Z" fill="#2F2E41"/>
<path d="M341.679 279.633L378.306 302.072L373.743 312.929L339.411 296.69L341.679 279.633Z" fill="#9F616A"/>
<path d="M294.846 305.573C294.846 305.573 220.521 305.658 208.283 324.784C196.045 343.911 206.036 370.657 244.355 376.729C282.675 382.801 399.147 385.727 408.316 362.781C417.485 339.836 410.574 326.847 410.574 326.847C410.574 326.847 370.698 299.37 294.846 305.573Z" fill="#111B47"/>
<path d="M359.727 324.036L400.571 339.288C400.571 339.288 417.504 327.03 409.015 313.271C400.526 299.513 361.92 220.006 361.92 220.006C361.92 220.006 351.118 204.72 364.974 196.29C378.83 187.861 384.238 201.623 384.238 201.623C384.238 201.623 383.471 204.683 388.86 202.383C394.25 200.082 404.273 207.719 398.894 219.964C393.516 232.209 389.668 235.273 401.222 234.495C405.394 234.214 409.061 231.24 412.043 227.555C417.76 220.493 415.198 214.812 414.754 205.762C413.995 190.258 412.77 180.15 408.856 174.058C403.454 165.65 395.743 158.775 375.72 162.622C355.696 166.47 326.446 185.626 333.411 213.154C340.375 240.683 355.816 271.262 355.816 271.262C355.816 271.262 366.649 314.085 359.727 324.036Z" fill="#111B47"/>
<path opacity="0.1" d="M360.275 323.745C353.663 325.578 345.358 326.477 336.417 326.763C320.816 327.264 303.253 325.904 289.227 324.356C274.075 322.678 263.049 320.789 263.049 320.789C268.165 315.999 276.033 314.096 285.279 313.396C296.761 312.524 310.374 313.49 323.517 313.053C328.363 312.878 333.212 313.237 337.979 314.125C352.482 316.877 360.275 323.745 360.275 323.745Z" fill="black"/>
<path d="M294.208 240.798C306.097 240.785 315.725 231.135 315.711 219.246C315.698 207.356 306.048 197.729 294.159 197.743C282.269 197.756 272.642 207.405 272.656 219.295C272.669 231.184 282.319 240.812 294.208 240.798Z" fill="#9F616A"/>
<path d="M291.083 236.789C291.083 236.789 294.879 251.445 291.1 252.221C287.321 252.997 278.254 256.865 278.254 256.865L289.599 261.482L310.789 281.52L328.943 290.758L338.011 287.661L337.992 270.686L324.36 249.097C324.36 249.097 315.292 252.193 313.012 242.165C310.733 232.137 306.193 228.284 306.193 228.284L291.083 236.789Z" fill="#9F616A"/>
<path d="M285.693 257.474L276.503 257.485C276.503 257.485 260.427 262.832 251.251 275.022C242.075 287.213 227.538 299.409 227.538 299.409C227.538 299.409 217.598 313.123 222.98 332.148C228.363 351.173 236.037 364.867 242.925 361.053C249.813 357.239 232.934 329.853 232.934 329.853L237.509 313.1C237.509 313.1 261.219 285.668 271.175 286.418C281.132 287.168 281.907 295.541 281.907 295.541L303.357 301.607L310.233 287.135L306.387 271.915L285.693 257.474Z" fill="#9F616A"/>
<path d="M340.498 306.353C339.061 308.816 338.009 311.482 337.378 314.261C336.432 318.365 335.912 322.555 335.824 326.765C320.307 327.26 302.839 325.915 288.888 324.383C287.651 321.107 286.292 317.339 284.963 313.539C281.38 303.272 278.048 292.792 278.046 291.252C278.043 288.218 294.038 293.51 297.845 292.747C301.651 291.984 303.16 279.844 297.823 273.782C292.486 267.719 276.866 257.495 276.866 257.495L282.194 255.972C282.194 255.972 294.006 264.683 318.387 279.068C342.768 293.454 332.844 270.707 332.844 270.707L318.733 249.103L324.825 249.096C324.825 249.096 336.649 269.186 342.751 278.282C348.852 287.378 346.578 296.484 340.498 306.353Z" fill="#3F3D56"/>
<path d="M270.363 199.021L309.126 191.042L314.022 214.829L275.259 222.807L270.363 199.021Z" fill="#2F2E41"/>
<path d="M392.767 194.852C399.287 194.845 404.566 189.553 404.559 183.033C404.551 176.513 399.26 171.233 392.74 171.241C386.22 171.248 380.94 176.54 380.948 183.06C380.955 189.58 386.247 194.859 392.767 194.852Z" fill="#3F3D56"/>
<path d="M392.76 189.297C396.212 189.293 399.007 186.491 399.003 183.039C398.999 179.588 396.198 176.793 392.746 176.797C389.294 176.801 386.499 179.602 386.503 183.054C386.507 186.505 389.309 189.301 392.76 189.297Z" fill="white"/>
<path d="M55.3575 314.681L54.5677 320.693C54.3003 322.728 54.0328 324.765 53.8899 326.812C53.4146 333.621 54.323 340.457 54.0937 347.279C53.9172 352.531 53.0669 357.78 53.4865 363.019C53.8577 367.653 55.2127 372.15 56.56 376.608L58.4858 382.979C58.518 383.365 58.7327 383.715 59.0662 383.924C59.3998 384.133 59.8141 384.178 60.1867 384.046L68.6759 383.285C68.1294 380.849 67.5218 378.311 67.2267 375.835C66.9934 373.876 66.8523 371.908 66.7051 369.942C66.2463 363.812 65.7278 357.687 65.2093 351.562L64.2985 340.801C63.9035 336.134 63.5037 331.439 62.2958 326.906C61.0921 322.318 58.7031 318.109 55.3575 314.681Z" fill="#111B47"/>
<path opacity="0.1" d="M55.3575 314.681L54.5677 320.693C54.3003 322.728 54.0328 324.765 53.8899 326.812C53.4146 333.621 54.323 340.457 54.0937 347.279C53.9172 352.531 53.0669 357.78 53.4865 363.019C53.8577 367.653 55.2127 372.15 56.56 376.608L58.4858 382.979C58.518 383.365 58.7327 383.715 59.0662 383.924C59.3998 384.133 59.8141 384.178 60.1867 384.046L68.6759 383.285C68.1294 380.849 67.5218 378.311 67.2267 375.835C66.9934 373.876 66.8523 371.908 66.7051 369.942C66.2463 363.812 65.7278 357.687 65.2093 351.562L64.2985 340.801C63.9035 336.134 63.5037 331.439 62.2958 326.906C61.0921 322.318 58.7031 318.109 55.3575 314.681Z" fill="black"/>
<path d="M71.3991 522.219C70.9053 523.189 70.4757 524.191 70.1131 525.218C69.1514 528.053 69.009 531.091 68.8752 534.082C68.8099 534.659 68.8641 535.243 69.0344 535.799C69.448 536.873 70.6377 537.417 71.7495 537.714C76.4058 538.961 81.3126 537.777 86.1132 537.342C90.8251 536.915 95.6258 537.214 100.24 536.169C100.922 536.04 101.581 535.81 102.196 535.487C103.365 534.725 104.237 533.584 104.665 532.255C104.805 531.915 104.899 531.558 104.944 531.193C105.095 529.619 103.722 528.253 102.228 527.738C100.735 527.222 99.1111 527.31 97.539 527.15C90.8902 526.474 85.5216 521.42 84.4439 514.822C84.3878 514.478 76.6711 514.69 75.8594 515.136C74.9093 515.659 74.3354 516.962 73.8008 517.843C72.9371 519.266 72.1365 520.724 71.3991 522.219Z" fill="#3F3D56"/>
<path opacity="0.1" d="M71.3991 522.219C70.9053 523.189 70.4757 524.191 70.1131 525.218C69.1514 528.053 69.009 531.091 68.8752 534.082C68.8099 534.659 68.8641 535.243 69.0344 535.799C69.448 536.873 70.6377 537.417 71.7495 537.714C76.4058 538.961 81.3126 537.777 86.1132 537.342C90.8251 536.915 95.6258 537.214 100.24 536.169C100.922 536.04 101.581 535.81 102.196 535.487C103.365 534.725 104.237 533.584 104.665 532.255C104.805 531.915 104.899 531.558 104.944 531.193C105.095 529.619 103.722 528.253 102.228 527.738C100.735 527.222 99.1111 527.31 97.539 527.15C90.8902 526.474 85.5216 521.42 84.4439 514.822C84.3878 514.478 76.6711 514.69 75.8594 515.136C74.9093 515.659 74.3354 516.962 73.8008 517.843C72.9371 519.266 72.1365 520.724 71.3991 522.219Z" fill="black"/>
<path d="M83.8991 522.204C83.4053 523.175 82.9757 524.177 82.6131 525.204C81.6514 528.039 81.509 531.076 81.3752 534.067C81.3099 534.644 81.3641 535.229 81.5344 535.784C81.948 536.859 83.1377 537.402 84.2495 537.7C88.9058 538.947 93.8126 537.762 98.6132 537.327C103.325 536.9 108.126 537.2 112.74 536.155C113.422 536.025 114.081 535.795 114.696 535.473C115.865 534.71 116.737 533.569 117.165 532.24C117.305 531.9 117.399 531.543 117.444 531.178C117.595 529.604 116.222 528.239 114.728 527.723C113.235 527.208 111.611 527.295 110.039 527.135C103.39 526.46 98.0216 521.405 96.9439 514.807C96.8878 514.464 89.1711 514.675 88.3594 515.122C87.4093 515.645 86.8354 516.948 86.3008 517.828C85.4371 519.251 84.6365 520.71 83.8991 522.204Z" fill="#3F3D56"/>
<path d="M115.969 446.494C116.084 461.836 111.682 476.837 106.516 491.265C104.47 496.976 102.299 502.638 100.003 508.25C98.6436 511.577 97.1117 515.266 98.5763 518.547C94.3703 516.936 90.0646 515.986 85.6271 516.738C87.3127 513.259 87.1491 509.211 87.22 505.34C87.3607 500.084 87.915 494.848 88.8776 489.68C90.3555 481.818 92.8974 474.198 96.4321 467.035C97.1487 465.525 97.6419 463.917 97.8959 462.262C98.3517 458.582 98.1358 454.849 97.2589 451.247C95.6303 443.269 92.5473 435.665 88.167 428.824C88.1533 428.976 88.1395 429.131 88.123 429.283C87.8611 431.565 87.4831 433.832 86.9904 436.074C86.0034 440.827 84.8518 445.583 85.0301 450.36C85.222 455.427 84.9168 460.501 84.119 465.507C83.8661 467.474 83.3613 469.399 82.6173 471.234C82.1334 472.333 81.5018 473.367 81.1211 474.505C80.7437 475.82 80.5473 477.181 80.5375 478.551C79.9847 490.104 80.5592 504.887 82.9111 516.21C78.9693 516.031 75.0533 516.937 71.5813 518.83C68.7452 510.779 66.9311 499.342 65.5749 490.861C64.0386 480.843 64.3369 470.625 66.4549 460.716C67.1134 457.41 67.3578 454.033 67.1823 450.665C66.8735 443.957 65.2324 437.397 63.6024 430.887C62.7734 427.583 61.9444 424.278 61.1154 420.972C59.9363 416.264 58.7554 411.555 57.5726 406.845C56.7884 403.712 55.9958 400.512 56.2374 397.289C56.4078 395.521 56.7733 393.779 57.3271 392.094C59.0769 386.359 61.6965 380.932 65.0926 376.008C78.6399 376.761 92.3494 375.464 105.875 374.399C106.533 374.266 107.215 374.383 107.794 374.726C108.253 375.198 108.527 375.823 108.565 376.484C110.271 386.175 111.976 395.865 113.68 405.556C114.51 409.603 114.998 413.713 115.141 417.842C115.171 421.958 114.515 426.06 114.673 430.173C114.886 435.713 115.929 440.951 115.969 446.494Z" fill="#2F2E41"/>
<path opacity="0.1" d="M88.1739 430.173C87.907 432.422 87.5217 434.657 87.0196 436.868C84.0112 431.798 80.7699 426.857 77.9999 421.659C77.2854 420.32 76.6049 418.964 75.9216 417.61C75.2411 416.257 74.5606 414.903 73.8801 413.55C73.4986 412.79 73.1142 412.027 72.7696 411.248C72.2068 410.125 71.7748 408.944 71.4816 407.728C72.487 407.546 74.9671 410.191 75.7122 410.881C77.2406 412.35 78.6839 413.901 80.0354 415.527C81.6705 417.33 83.1716 419.246 84.5275 421.258C86.2604 424.002 87.4941 427.018 88.1739 430.173Z" fill="black"/>
<path d="M100.513 289.096C100.513 289.096 92.8168 301.551 94.2476 304.154C95.6784 306.757 69.9719 301.866 69.9719 301.866C69.9719 301.866 83.9504 289.404 82.5167 284.195C81.0829 278.987 100.513 289.096 100.513 289.096Z" fill="#EFB7B9"/>
<path d="M92.8778 292.416C102.466 292.405 110.23 284.624 110.219 275.035C110.208 265.447 102.426 257.683 92.8382 257.694C83.2499 257.705 75.4859 265.487 75.4969 275.075C75.5078 284.663 83.2895 292.427 92.8778 292.416Z" fill="#EFB7B9"/>
<path d="M100.337 301.038C98.4801 298.477 95.9613 296.463 93.0469 295.208C91.3693 294.613 89.6352 294.19 87.8713 293.945L80.9604 292.746C79.2666 292.452 77.4539 292.171 75.8837 292.867C75.0812 293.271 74.3508 293.803 73.7215 294.442C71.3224 296.654 68.9979 299.087 65.9884 300.366C65.1645 300.716 64.3026 300.972 63.48 301.325C60.1127 302.771 57.5973 305.783 56.17 309.14C54.6727 312.662 54.6335 316.477 54.7564 320.298C54.7542 321.617 54.8862 322.933 55.1504 324.225C55.5004 325.455 55.9398 326.657 56.465 327.824C57.4221 330.316 58.2241 332.863 58.8666 335.453C60.6644 342.259 62.1604 349.134 63.3547 356.079C63.4592 357.077 63.7559 358.047 64.2286 358.934C64.8964 359.817 65.704 360.586 66.62 361.211C67.3454 361.807 68.016 362.465 68.624 363.179C68.9205 363.484 69.1381 363.856 69.2578 364.262C69.4831 365.289 68.5706 366.17 67.8301 366.92C66.2917 368.483 65.1806 370.41 64.6022 372.52C64.2408 372.952 64.0578 373.505 64.0902 374.067C64.2389 374.455 64.2946 374.873 64.2529 375.287C64.1111 375.665 63.8894 376.008 63.6028 376.293C62.9356 377.158 62.6752 378.267 62.8877 379.336C68.2586 381.647 74.0051 382.977 79.8511 383.261C81.2826 383.326 82.7197 383.325 84.1423 383.497C85.1568 383.62 86.1591 383.831 87.1744 383.948C88.6513 384.084 90.1358 384.119 91.6177 384.055C99.3259 383.895 107.26 383.687 114.335 380.643C114.998 377.035 113.557 373.361 112.652 369.806C111.212 364.152 110.845 358.286 109.772 352.552C109.038 348.627 107.973 344.765 107.361 340.82C106.749 336.874 106.602 332.783 107.689 328.941C108.653 325.535 108.941 322.069 109.94 318.673C110.939 315.278 111.637 311.597 110.501 308.245C109.093 304.088 104.745 300.803 100.337 301.038Z" fill="#111B47"/>
<path d="M108.595 266.699C109.438 263.665 107.77 260.509 105.777 258.047C103.635 255.402 100.869 253.016 97.4939 252.355C94.7511 251.817 91.9103 252.473 89.1219 252.259C86.6503 252.069 84.2813 251.202 81.8223 250.892C79.598 250.66 77.3512 250.747 75.1521 251.148C73.0615 251.45 71.0187 252.013 69.0732 252.823C61.6709 256.054 57.3405 264.017 56.3426 271.911C55.3447 279.804 57.1194 287.754 58.8834 295.517L60.4779 302.535C62.1376 309.839 63.8029 317.181 64.2532 324.651C64.7036 332.122 63.8879 339.793 60.7658 346.62C70.8793 341.271 78.71 332.545 82.842 322.021C83.9642 319.13 84.7939 316.131 86.0373 313.289C87.107 310.844 88.4774 308.527 89.4252 306.034C90.4941 303.217 91.0055 300.226 90.9319 297.22C90.8752 294.962 90.4878 292.714 90.5523 290.456C90.6168 288.198 91.199 285.841 92.7869 284.206C94.1984 282.753 96.2056 282.053 98.0256 281.137C100.888 279.69 103.387 277.637 105.344 275.127C106.489 273.658 106.549 273.032 106.839 271.339C107.12 269.693 108.151 268.297 108.595 266.699Z" fill="#2F2E41"/>
<path d="M108.819 395.059C108.998 396.853 108.674 398.692 109.068 400.451C109.364 401.773 110.05 402.973 110.454 404.266C110.856 405.765 111.063 407.308 111.071 408.86C111.131 410.16 111.033 411.742 109.884 412.353C109.379 412.622 108.773 412.628 108.248 412.853C107.723 413.078 107.272 413.716 107.574 414.202C107.827 414.611 108.402 414.615 108.873 414.711C109.344 414.807 109.862 415.295 109.59 415.691C109.48 415.82 109.334 415.913 109.17 415.958C108.689 416.104 108.234 416.324 107.82 416.61C107.403 416.909 107.188 417.417 107.266 417.925C107.324 418.168 107.49 418.37 107.716 418.475C107.943 418.579 108.205 418.573 108.427 418.458C108.216 418.909 108.102 419.399 108.09 419.897C109.931 420.686 112 419.649 113.731 418.64C114.481 418.223 115.206 417.76 115.9 417.255C118.728 415.064 120.291 411.615 120.074 408.043C119.992 407.157 119.856 406.278 119.664 405.409C119.394 403.899 119.038 402.405 118.598 400.936C118.101 399.386 117.419 397.903 116.834 396.384C115.587 393.147 114.783 389.758 113.659 386.477C113.626 386.16 113.463 385.871 113.208 385.679C112.954 385.488 112.631 385.411 112.317 385.468C111.056 385.404 109.792 385.522 108.563 385.818C107.821 386.036 106.604 386.515 106.272 387.293C105.973 387.994 106.477 388.622 106.796 389.222C107.842 391.018 108.529 393.001 108.819 395.059Z" fill="#EFB7B9"/>
<path opacity="0.1" d="M107.917 309.066C108.276 309.439 108.576 309.867 108.808 310.334C111.201 314.778 111.237 320.1 111.355 325.174C111.488 330.885 111.8 336.59 112.111 342.294L113.043 359.353C113.132 360.982 113.221 362.615 113.446 364.231C114.519 364.507 114.565 365.927 114.442 367.054C113.682 374.017 111.779 381.186 113.788 387.883C113.865 388.228 114.026 388.547 114.257 388.811C113.248 388.485 112.168 388.472 111.151 388.771C110.154 388.988 109.195 389.363 108.201 389.596C106.936 389.892 105.502 390.021 104.64 391.014C103.661 388.005 102.881 384.932 102.305 381.815C101.828 378.983 101.695 376.037 100.566 373.406C100.11 372.344 99.5012 371.359 98.9456 370.348C96.0223 365.027 94.5871 359.006 93.1844 353.071C92.5545 350.257 92.4009 347.353 92.7305 344.486C92.9272 343.177 93.0421 341.858 93.0745 340.534C92.984 339.138 92.8039 337.75 92.5353 336.378C91.9414 332.354 92.2127 328.246 93.3303 324.341C94.3716 320.715 95.2838 316.9 97.4665 313.852C99.6492 310.805 104.228 309.122 107.917 309.066Z" fill="black"/>
<path d="M107.915 307.677C108.274 308.05 108.575 308.478 108.807 308.945C111.199 313.389 111.236 318.711 111.354 323.785C111.486 329.496 111.798 335.201 112.11 340.905L113.041 357.964C113.13 359.593 113.219 361.225 113.444 362.841C114.518 363.118 114.564 364.538 114.441 365.665C113.68 372.628 111.777 379.797 113.787 386.494C113.863 386.839 114.025 387.158 114.256 387.421C113.246 387.096 112.166 387.083 111.149 387.382C110.152 387.599 109.193 387.974 108.199 388.207C106.934 388.503 105.5 388.632 104.638 389.625C103.66 386.616 102.88 383.542 102.303 380.426C101.826 377.594 101.694 374.648 100.564 372.017C100.108 370.955 99.4996 369.97 98.944 368.959C96.0207 363.638 94.5855 357.617 93.1828 351.682C92.5529 348.868 92.3993 345.964 92.7289 343.097C92.9256 341.788 93.0405 340.468 93.0729 339.145C92.9824 337.749 92.8023 336.361 92.5337 334.989C91.9398 330.965 92.2111 326.857 93.3288 322.952C94.37 319.325 95.2822 315.51 97.4649 312.463C99.6476 309.415 104.226 307.732 107.915 307.677Z" fill="#111B47"/>
<g opacity="0.1">
<path d="M105.611 257.096C103.476 254.432 100.718 252.029 97.3539 251.363C94.6196 250.822 91.7878 251.482 89.0082 251.267C86.5443 251.076 84.1827 250.202 81.7314 249.89C79.5141 249.656 77.2743 249.743 75.0822 250.148C72.9981 250.452 70.9617 251.019 69.0224 251.835C67.9744 252.299 66.9745 252.863 66.0365 253.519C67.7655 252.868 69.5595 252.401 71.3882 252.127C73.5804 251.722 75.8202 251.635 78.0375 251.869C80.4888 252.181 82.8504 253.054 85.3143 253.245C88.0939 253.461 90.9257 252.801 93.66 253.342C97.0245 254.008 99.782 256.411 101.917 259.075C103.904 261.555 105.566 264.733 104.727 267.79C104.284 269.399 103.257 270.805 102.976 272.463C102.687 274.168 102.627 274.799 101.485 276.278C100.017 278.18 98.2389 279.826 96.2254 281.149C96.7811 280.886 97.341 280.629 97.8843 280.353C100.737 278.895 103.229 276.828 105.179 274.299C106.321 272.82 106.381 272.189 106.67 270.485C106.95 268.826 107.978 267.42 108.42 265.811C109.26 262.755 107.598 259.576 105.611 257.096Z" fill="black"/>
<path d="M92.6622 283.444C92.9599 283.138 93.284 282.858 93.6309 282.607C91.9746 283.405 90.232 284.108 88.9683 285.423C87.3854 287.069 86.805 289.443 86.7407 291.718C86.6764 293.993 87.0627 296.256 87.1192 298.531C87.1926 301.558 86.6829 304.571 85.6173 307.408C84.6726 309.919 83.3065 312.252 82.2401 314.715C81.0007 317.578 80.1736 320.598 79.055 323.51C75.4819 332.698 69.1272 340.562 60.8648 346.021C60.8228 346.116 60.785 346.212 60.7422 346.307C70.8239 340.92 78.6299 332.131 82.7489 321.531C83.8675 318.619 84.6946 315.599 85.934 312.736C87.0003 310.273 88.3665 307.94 89.3112 305.429C90.3768 302.592 90.8865 299.579 90.8131 296.552C90.7565 294.277 90.3703 292.014 90.4346 289.739C90.4988 287.465 91.0793 285.09 92.6622 283.444Z" fill="black"/>
</g>
<path d="M470.967 534.794C470.134 535.742 468.707 535.934 467.415 536.06C465.746 536.29 464.054 536.322 462.377 536.157C460.384 535.88 459.192 536.947 457.371 536.129C456.27 535.635 454.576 536.628 453.475 536.134C451.965 535.456 446.753 535.321 445.833 533.995C444.913 532.67 445.004 530.574 446.456 529.789C446.868 529.605 447.293 529.448 447.728 529.319C450.159 528.406 455.078 521.529 457.665 521.174C458.948 521.117 460.224 521.398 461.346 521.986C463.899 523.049 468.405 523.886 469.521 526.59C470.391 528.696 472.768 532.732 470.967 534.794Z" fill="#2F2E41"/>
<path d="M488.947 535.576C489.772 536.578 491.183 536.778 492.46 536.909C494.11 537.148 495.784 537.178 497.441 536.999C499.41 536.701 501.811 538.403 503.609 537.533C504.697 537.006 506.372 537.278 507.46 536.752C508.951 536.03 515.966 537.627 516.872 536.221C517.779 534.816 517.684 532.597 516.247 531.769C515.84 531.575 515.419 531.409 514.989 531.275C512.583 530.313 504.622 521.494 502.064 521.124C500.795 521.066 499.535 521.367 498.426 521.992C495.906 523.124 491.454 524.02 490.356 526.886C489.502 529.118 487.161 533.397 488.947 535.576Z" fill="#2F2E41"/>
<path d="M496.571 379.238C497.358 380.733 498.046 382.278 498.63 383.862C505.616 402.134 506.222 422.108 506.532 441.648C506.512 444.825 506.699 448 507.091 451.153C507.385 453.152 507.848 455.173 507.553 457.173C507.298 458.901 506.48 460.607 506.809 462.323C506.957 463.093 507.329 463.807 507.477 464.577C507.591 465.421 507.569 466.278 507.41 467.115L506.484 474.009C505.957 477.936 504.733 481.719 504.805 485.68C504.853 488.382 504.902 491.089 505.209 493.774C505.52 496.501 506.096 499.206 506.129 501.95C506.153 504.004 505.872 506.049 505.691 508.096C505.436 510.986 505.38 513.891 505.525 516.789C505.637 519.022 505.898 521.341 507.094 523.236C505.758 525.141 504.436 526.847 502.295 527.781C497.945 529.679 492.951 529.042 488.247 528.371C488.506 527.509 488.909 526.533 488.532 525.716C488.31 525.32 488.038 524.954 487.723 524.627C486.695 523.18 485.98 521.537 485.625 519.802C485.053 517.745 484.481 515.53 485.647 513.554C486.049 512.85 486.226 512.042 486.155 511.236C485.166 498.279 482.244 484.876 484.906 472.155C485.191 470.797 485.529 469.448 485.687 468.07C485.829 466.088 485.851 464.1 485.752 462.115L485.693 459.353C485.55 456.405 485.668 453.384 485.068 450.469C484.639 448.382 483.84 446.284 484.82 444.156C485.253 443.166 485.198 442.033 484.67 441.09C482.6 437.502 480.934 433.699 479.703 429.75C479.447 428.646 479.096 427.566 478.656 426.521C478.055 425.42 477.365 424.37 476.592 423.38C474.258 420.03 472.86 416.142 471.488 412.304C471.633 411.952 471.52 411.462 471.14 411.513C470.764 411.609 470.441 411.848 470.243 412.179C468.371 414.68 468.218 418.014 468.137 421.128C467.998 424.022 468.051 426.921 468.296 429.807C468.458 431.319 468.726 432.819 468.864 434.334C469.047 437.16 469.005 439.995 468.739 442.814L467.798 456.687C467.669 457.834 467.74 458.994 468.007 460.117C468.624 462.06 468.926 464.089 468.901 466.126C468.659 474.505 469.399 482.884 471.106 491.094C471.576 493.36 472.119 495.613 472.518 497.893C473.459 503.266 473.593 508.742 473.725 514.194C473.806 517.546 473.865 521.019 472.537 524.102C472.018 525.053 471.637 526.072 471.406 527.129C471.402 527.674 471.33 528.216 471.191 528.743C470.801 529.741 469.629 530.167 468.575 530.396C466.595 530.826 464.562 530.972 462.54 530.829C462.066 530.822 461.597 530.719 461.164 530.528C460.409 530.141 460.008 529.32 459.433 528.699C458.195 527.36 456.138 526.952 455.009 525.521C453.597 523.731 454.186 521.134 455.023 519.019C455.859 516.903 456.895 514.605 456.17 512.45C455.316 509.909 452.298 508.544 451.485 505.99C453.785 495.683 448.096 485.032 448.57 474.486C448.681 472.03 449.108 469.591 449.114 467.132C449.129 460.799 446.356 454.639 446.804 448.321C447.941 432.265 442.411 416.244 440.057 400.319C439.612 397.942 439.444 395.522 439.556 393.107C439.898 389.119 441.76 385.407 444 382.079C445.605 379.694 447.536 377.36 450.198 376.242C452.39 375.322 454.848 375.323 457.228 375.339C463.167 375.378 469.106 375.416 475.044 375.516C479.085 375.455 483.122 375.808 487.089 376.571C490.302 377.296 493.309 378.778 496.571 379.238Z" fill="#2F2E41"/>
<path d="M401.423 306.127C400.824 303.252 401.947 300.174 401.062 297.372C400.744 296.361 399.962 295.311 398.889 295.342C397.846 295.371 397.142 296.379 396.218 296.856C394.729 297.626 392.918 296.931 391.428 296.162C389.939 295.394 388.277 294.525 386.663 294.988C386.474 295.986 387.158 296.936 387.902 297.637C388.726 298.249 389.408 299.027 389.903 299.919C390.147 300.884 390.24 301.88 390.18 302.872C390.352 305.15 391.817 307.11 393.281 308.88C395.64 311.732 398.145 314.464 400.786 317.065C400.781 317.061 404.782 312.169 404.704 311.315C404.631 310.51 403.282 309.758 402.791 309.11C402.12 308.226 401.653 307.208 401.423 306.127Z" fill="#A1616A"/>
<path d="M515.309 364.678C515.647 365.579 515.9 366.511 516.065 367.462C517.045 372.332 517.664 377.271 518.275 382.205C518.438 383.521 518.601 384.84 518.652 386.166C518.827 389.316 518.202 392.458 516.841 395.282C515.456 398.113 513.099 400.31 510.229 401.444C509.345 401.77 508.109 401.83 507.722 400.948C507.584 400.54 507.587 400.095 507.73 399.688C508.077 398.374 508.786 397.194 509.246 395.916C509.927 394.008 510.039 391.933 509.566 389.958C509.384 389.203 509 388.361 508.26 388.211C508.631 389.952 508.322 391.774 507.401 393.282C507.191 393.702 506.829 394.02 506.393 394.165C505.764 394.231 505.174 393.839 504.971 393.22C504.79 392.613 504.75 391.971 504.854 391.345C505.088 388.179 505.551 385.036 506.24 381.942C507.061 378.546 508.364 375.195 508.276 371.695C508.196 368.524 506.969 365.413 507.308 362.26C507.313 362.065 507.373 361.876 507.482 361.717C507.59 361.606 507.721 361.523 507.865 361.473C508.722 361.106 509.604 360.804 510.504 360.568C511.036 360.429 512.851 359.776 513.361 360.067C513.774 360.302 513.903 361.714 514.109 362.192C514.475 363.038 514.962 363.822 515.309 364.678Z" fill="#A1616A"/>
<path d="M453.27 271.172C460.174 271.164 465.764 265.562 465.756 258.658C465.748 251.754 460.145 246.164 453.242 246.172C446.338 246.18 440.748 251.783 440.756 258.687C440.764 265.59 446.367 271.18 453.27 271.172Z" fill="#A1616A"/>
<path d="M465.328 267.839C465.328 268.661 465.394 269.483 465.526 270.294C465.704 271.116 465.955 271.919 466.277 272.695C466.708 273.956 467.315 275.149 468.081 276.239C468.858 277.336 470.021 278.095 471.334 278.363C462.558 282.509 453.187 285.241 443.566 286.461C445.081 285.446 446.34 284.091 447.246 282.504C447.726 281.485 448.054 280.4 448.218 279.285C449.032 274.618 448.611 269.818 446.995 265.366C446.835 264.927 446.679 264.388 446.98 264.032C447.109 263.901 447.264 263.799 447.436 263.734C451.25 262.107 455.369 261.33 459.511 261.457C460.569 261.463 461.627 261.509 462.683 261.585C463.25 261.625 464.504 261.504 464.956 261.921C465.495 262.419 465.227 263.967 465.245 264.643L465.328 267.839Z" fill="#A1616A"/>
<path d="M471.264 277.794C467.367 272.852 460.575 271.182 454.801 273.746C448.685 276.65 445.679 283.611 440.302 287.708C439.079 288.618 437.775 289.417 436.407 290.094C435.6 290.538 434.738 290.877 433.844 291.103C432.838 291.324 431.788 291.295 430.786 291.535C428.879 292.093 427.254 293.346 426.24 295.043C425.737 295.93 425.179 296.786 424.57 297.605C424.009 298.268 423.311 298.803 422.716 299.438C420.579 301.721 420.001 304.997 419.517 308.076C417.844 309.826 416.019 311.427 414.062 312.858C413.447 313.329 412.763 313.705 412.035 313.973C410.153 314.581 408.076 313.813 406.469 312.665C404.863 311.518 403.554 310.004 401.971 308.825C400.519 310.888 399.002 312.958 397.455 314.951C397.222 315.33 396.866 315.62 396.445 315.774C396.155 316.745 396.855 317.75 397.378 318.62L400.187 323.289C401.115 324.989 402.254 326.567 403.576 327.988C404.917 329.416 406.747 330.297 408.709 330.457C409.947 330.444 411.172 330.21 412.327 329.766C417.667 327.977 422.568 325.128 427.647 322.705C428.567 322.182 429.598 321.881 430.657 321.826C431.745 321.796 432.719 322.49 433.038 323.522C433.624 326.44 434.207 329.347 435.011 332.214C435.77 334.917 436.475 337.634 437.126 340.366C437.561 342.037 437.873 343.738 438.058 345.454C438.143 346.429 438.153 347.408 438.163 348.386L438.284 360.207C438.297 361.48 437.567 362.275 437.005 363.419C436.144 365.194 436.017 367.233 436.649 369.101C436.966 370.022 437.462 370.874 437.814 371.783C438.663 373.982 438.633 376.404 438.592 378.758L438.497 384.153C438.471 384.376 438.512 384.602 438.615 384.803C438.947 385.317 439.747 385.014 440.253 384.666L442.794 382.915C446.197 383.376 449.635 383.537 453.067 383.395C462.827 383.244 472.591 383.618 482.329 384.283C485.578 384.505 488.937 384.746 492.007 383.667C493.565 383.12 495 382.246 496.592 381.807C497.25 381.705 497.873 381.449 498.412 381.062C499.302 380.243 499.064 378.808 498.699 377.659C498.38 376.654 498.017 375.664 497.612 374.689C497.195 373.793 496.855 372.863 496.595 371.91C496.105 369.758 496.576 367.272 495.224 365.521C492.196 361.603 494.329 355.566 493.055 350.794C492.643 349.25 492.034 347.761 491.648 346.211C491.405 345.237 491.251 344.244 491.098 343.253C490.697 341.11 490.497 338.934 490.501 336.753C490.536 335.662 490.673 334.577 490.81 333.494L491.762 325.973C492.966 328.196 493.803 330.595 494.242 333.079C495.121 336.79 496.201 340.451 497.479 344.046C498.206 346.214 498.932 348.382 499.717 350.53C500.214 351.752 500.597 353.017 500.861 354.309C501.035 355.351 501.041 356.413 501.164 357.462C501.43 359.712 502.226 361.868 503.488 363.756C503.722 364.193 504.107 364.532 504.574 364.709C504.889 364.766 505.212 364.753 505.521 364.67C508.915 364.001 512.199 362.87 515.279 361.309C515.936 361.04 516.505 360.597 516.927 360.03C517.755 358.692 516.825 357.021 516.42 355.502C515.986 353.875 516.084 351.916 514.79 350.826C510.284 347.031 512.51 339.313 510.25 333.895C509.854 332.944 509.392 332.019 509.049 331.047C508.788 330.304 508.598 329.539 508.407 328.776C506.826 322.464 505.136 316.18 503.334 309.925C501.467 303.44 501.658 296.683 499.309 290.353C498.867 289.027 498.291 287.748 497.589 286.537C496.795 285.271 495.735 284.191 494.481 283.369C491.079 281.144 487.646 279.25 483.653 278.446C479.66 277.641 475.338 277.771 471.264 277.794Z" fill="#D0CDE1"/>
<path d="M441.592 261.642C439.855 260.714 440.309 258.191 440.012 256.253C439.401 252.267 434.866 249.907 433.797 246.017C435.02 246.165 436.26 245.989 437.392 245.507C437.609 244.215 437.35 242.889 436.663 241.771C440.389 240.261 443.402 237.304 447.186 235.943C451.943 234.232 457.245 235.273 462.048 236.853C464.445 237.642 466.939 238.666 468.39 240.72C469.983 242.976 469.962 245.947 469.88 248.702C469.751 253.023 469.585 257.499 467.654 261.372C465.195 266.304 458.225 270.877 452.459 269.549C450.062 268.996 449.354 267.501 448.342 265.431C447.711 264.143 447.473 262.647 446.057 261.979C444.672 261.325 442.997 262.392 441.592 261.642Z" fill="#2F2E41"/>
<g opacity="0.1">
<path d="M494.493 353.47C494.509 353.811 494.519 354.154 494.523 354.499C494.506 354.159 494.497 353.815 494.493 353.47Z" fill="black"/>
<path d="M438.833 366.425C439.682 368.637 439.652 371.075 439.611 373.445C439.6 374.063 439.589 374.682 439.578 375.3C439.523 374.022 439.273 372.761 438.838 371.558C438.487 370.643 437.991 369.786 437.674 368.858C437.13 367.237 437.148 365.48 437.725 363.87C438.042 364.742 438.5 365.558 438.833 366.425Z" fill="black"/>
</g>
<g opacity="0.1">
<path d="M437.242 243.368L437.231 243.374C437.124 242.572 436.906 241.804 436.587 241.109C436.784 241.002 436.979 240.888 437.172 240.77C437.325 241.621 437.35 242.505 437.242 243.368Z" fill="black"/>
</g>
<path d="M33.7661 218.873L30.742 216.121C20.0026 206.173 12.9127 199.717 12.9035 191.664C12.8463 188.569 14.0304 185.582 16.1863 183.384C18.3421 181.186 21.286 179.963 24.3475 179.995C27.967 180.011 31.3969 181.634 33.7268 184.435C36.0503 181.629 39.4765 179.998 43.0959 179.974C46.1574 179.935 49.1041 181.151 51.2649 183.344C53.4258 185.537 54.6168 188.521 54.5666 191.617C54.5758 199.669 47.5005 206.142 36.7839 216.114L33.7661 218.873Z" fill="#FF6584"/>
<path fill-rule="evenodd" clip-rule="evenodd" d="M39.3137 211.922L36.2896 209.169C25.5502 199.222 18.4603 192.766 18.4511 184.713C18.3939 181.618 19.578 178.631 21.7339 176.433C23.8897 174.235 26.8336 173.012 29.8951 173.044C33.5146 173.06 36.9445 174.683 39.2744 177.484C41.5979 174.678 45.0241 173.046 48.6436 173.023C51.705 172.984 54.6517 174.199 56.8125 176.393C58.9734 178.586 60.1644 181.57 60.1142 184.666C60.1234 192.718 53.0481 199.191 42.3315 209.163L39.3137 211.922Z" stroke="#3F3D56" stroke-width="2"/>
</svg>
