<svg width="619" height="435" viewBox="0 0 619 435" fill="none" xmlns="http://www.w3.org/2000/svg">
<path d="M232.406 423.021C342.863 423.021 432.406 333.477 432.406 223.021C432.406 112.564 342.863 23.0205 232.406 23.0205C121.949 23.0205 32.4064 112.564 32.4064 223.021C32.4064 333.477 121.949 423.021 232.406 423.021Z" fill="#F2F2F2"/>
<path d="M264.501 253.517C220.463 321.402 232.53 407.743 232.53 407.743C232.53 407.743 315.996 384.021 360.034 316.136C404.072 248.251 392.005 161.91 392.005 161.91C392.005 161.91 308.539 185.632 264.501 253.517Z" fill="#3F3D56"/>
<path d="M232.394 406.354C232.394 406.354 231.316 406.183 229.331 405.783C227.748 405.463 225.568 405.007 222.907 404.379C199.114 398.795 135.858 379.922 94.5013 330.3C42.7399 268.164 44.9195 181.354 44.9195 181.354C44.9195 181.354 124.064 194.153 176.216 249.952C178.476 252.35 180.675 254.835 182.812 257.408C227.851 311.472 232.05 384.215 232.382 402.198C232.428 404.893 232.394 406.354 232.394 406.354Z" fill="#222F65"/>
<path fill-rule="evenodd" clip-rule="evenodd" d="M200.311 253.517C244.349 321.402 232.283 407.743 232.283 407.743C232.283 407.743 148.817 384.021 104.779 316.136C60.7409 248.251 72.8073 161.91 72.8073 161.91C72.8073 161.91 156.273 185.632 200.311 253.517Z" stroke="#3F3D56" stroke-width="2"/>
<path opacity="0.1" d="M232.406 403.654C231.24 405.064 230.211 406.268 229.364 407.253C227.489 409.397 226.425 410.521 226.425 410.521C226.425 410.521 225.133 408.893 222.96 405.843C211.032 389.175 172.662 329.909 175.624 261.448C175.785 257.86 176.048 254.31 176.414 250.798C178.667 253.206 180.858 255.701 182.989 258.284C227.889 312.564 232.075 385.599 232.406 403.654Z" fill="black"/>
<path d="M298.911 266.466C295.399 347.391 235.075 410.52 235.075 410.52C235.075 410.52 180.446 342.444 183.957 261.519C187.469 180.594 247.793 117.465 247.793 117.465C247.793 117.465 302.422 185.541 298.911 266.466Z" fill="#222F65"/>
<path d="M235.184 407.743L247.684 120.243" stroke="#3F3D56" stroke-width="2"/>
<path d="M309.49 434.132C480.161 434.132 618.517 425.426 618.517 414.687C618.517 403.948 480.161 395.243 309.49 395.243C138.818 395.243 0.461914 403.948 0.461914 414.687C0.461914 425.426 138.818 434.132 309.49 434.132Z" fill="#3F3D56"/>
<path d="M51.8508 407.743V329.965V407.743Z" fill="#3F3D56"/>
<path d="M51.8508 407.743V329.965" stroke="#3F3D56" stroke-width="2"/>
<path d="M51.8507 341.076C57.9872 341.076 62.9618 336.102 62.9618 329.965C62.9618 323.829 57.9872 318.854 51.8507 318.854C45.7142 318.854 40.7396 323.829 40.7396 329.965C40.7396 336.102 45.7142 341.076 51.8507 341.076Z" fill="#3F3D56"/>
<path d="M51.8508 378.576C51.8508 378.576 50.3004 344.366 18.5175 348.342L51.8508 378.576Z" fill="#3F3D56"/>
<path d="M317.129 281.354V64.687V281.354Z" fill="#3F3D56"/>
<path d="M317.129 281.354V64.687" stroke="#3F3D56" stroke-width="2"/>
<path d="M317.129 81.3539C325.566 81.3539 332.406 74.5138 332.406 66.0761C332.406 57.6384 325.566 50.7983 317.129 50.7983C308.691 50.7983 301.851 57.6384 301.851 66.0761C301.851 74.5138 308.691 81.3539 317.129 81.3539Z" fill="#3F3D56"/>
<path d="M317.128 127.187C317.128 127.187 314.997 80.5366 271.295 85.9591L317.128 127.187Z" fill="#3F3D56"/>
<path d="M498.081 161.91L485.058 186.402C485.058 186.402 390.89 204.397 402.911 232.389C414.933 260.381 428.457 301.369 435.469 300.369C442.482 299.369 481.051 277.376 482.553 270.878C484.056 264.38 447.992 233.889 447.992 233.889L507.598 222.392C507.598 222.392 516.113 262.38 505.093 289.872C494.074 317.364 487.562 391.842 495.076 392.842C502.589 393.841 521.623 399.84 530.138 394.341C538.653 388.843 542.66 268.378 542.66 268.378C542.66 268.378 560.693 189.402 549.673 180.404C538.653 171.407 498.081 161.91 498.081 161.91Z" fill="#2F2E41"/>
<path d="M518.437 381.711C518.437 381.711 506.8 375.567 504.35 380.482C504.35 380.482 506.188 395.229 498.838 397.072C491.488 398.915 488.426 411.819 498.838 413.048C509.25 414.276 515.987 410.59 519.662 410.59C523.337 410.59 519.662 397.687 519.662 397.687L518.437 381.711Z" fill="#2F2E41"/>
<path d="M462.913 281.125C462.913 281.125 450.234 277.568 448.871 282.91C448.871 282.91 453.772 296.984 446.968 300.352C440.165 303.721 439.884 317.027 450.33 316.022C460.776 315.017 466.592 309.971 470.188 309.191C473.783 308.41 467.473 296.534 467.473 296.534L462.913 281.125Z" fill="#2F2E41"/>
<path d="M526.011 75.6022C526.011 75.6022 526.506 94.255 523.043 95.7674C519.58 97.2798 542.337 106.354 542.337 106.354L546.295 99.2963C546.295 99.2963 541.843 74.0898 542.832 72.0733C543.822 70.0568 526.011 75.6022 526.011 75.6022Z" fill="#9F616A"/>
<path d="M533.795 79.9651C550.671 79.9651 564.351 66.2849 564.351 49.4096C564.351 32.5342 550.671 18.854 533.795 18.854C516.92 18.854 503.24 32.5342 503.24 49.4096C503.24 66.2849 516.92 79.9651 533.795 79.9651Z" fill="#2F2E41"/>
<path d="M536.573 32.7427C543.477 32.7427 549.073 27.1462 549.073 20.2427C549.073 13.3391 543.477 7.74268 536.573 7.74268C529.669 7.74268 524.073 13.3391 524.073 20.2427C524.073 27.1462 529.669 32.7427 536.573 32.7427Z" fill="#2F2E41"/>
<path d="M519.749 13.2983C519.75 6.89893 524.613 1.53312 531.018 0.865927C530.582 0.821011 530.145 0.798452 529.707 0.79834C522.76 0.79834 517.129 6.39478 517.129 13.2983C517.129 20.2019 522.76 25.7983 529.707 25.7983C530.145 25.7982 530.582 25.7757 531.018 25.7308C524.613 25.0636 519.75 19.6977 519.749 13.2983Z" fill="#2F2E41"/>
<path d="M532.406 85.5207C543.912 85.5207 553.24 76.1933 553.24 64.6873C553.24 53.1814 543.912 43.854 532.406 43.854C520.9 43.854 511.573 53.1814 511.573 64.6873C511.573 76.1933 520.9 85.5207 532.406 85.5207Z" fill="#9F616A"/>
<path d="M548.032 92.2003C548.032 92.2003 530.041 97.673 521.045 92.2003C512.049 86.7276 490.559 102.648 487.06 109.613C483.562 116.579 500.054 123.544 500.054 123.544C500.054 123.544 495.345 136.994 496.306 143.693C497.305 150.659 495.556 164.838 495.556 164.838C495.556 164.838 539.709 193.796 549.532 180.758C551.031 178.768 563.525 132.002 563.525 132.002L581.017 114.589C581.017 114.589 570.022 98.668 563.525 97.1755C557.028 95.6829 548.032 92.2003 548.032 92.2003Z" fill="#D0CDE1"/>
<path d="M426.763 193.854C426.763 193.854 393.079 211.685 400.014 216.779C406.949 221.874 435.184 196.911 435.184 196.911L426.763 193.854Z" fill="#9F616A"/>
<path d="M560.076 181.269C560.076 181.269 544.804 170.551 542.345 175.91C539.886 181.269 559.067 193.336 563.104 188.614C567.142 183.892 560.076 181.269 560.076 181.269Z" fill="#9F616A"/>
<path d="M572.362 107.743L581.269 113.282C581.269 113.282 611.454 155.582 601.063 165.15C590.671 174.718 563.95 193.854 563.95 193.854C563.95 193.854 555.043 180.761 558.012 180.257C560.981 179.754 584.733 159.611 584.733 159.611L563.95 120.332L572.362 107.743Z" fill="#D0CDE1"/>
<path d="M492.378 106.354L485.896 108.869L468.945 139.547L424.073 194.365C424.073 194.365 430.056 203.921 435.042 201.909C440.027 199.897 477.421 157.652 477.421 157.652L501.851 119.43L492.378 106.354Z" fill="#D0CDE1"/>
<path d="M534.49 52.187C546.379 52.187 556.017 46.5906 556.017 39.687C556.017 32.7835 546.379 27.187 534.49 27.187C522.6 27.187 512.962 32.7835 512.962 39.687C512.962 46.5906 522.6 52.187 534.49 52.187Z" fill="#2F2E41"/>
<rect x="392.129" y="310.521" width="98.6111" height="98.6111" fill="#222F65"/>
<path fill-rule="evenodd" clip-rule="evenodd" d="M459.999 379.144C470.324 379.144 476.851 370.363 476.851 356.431C476.851 337.478 462.331 324.41 441.379 324.41C419.581 324.41 404.629 339.113 404.629 360.53C404.629 382.472 419.28 396.612 442.169 396.631C446.136 396.651 450.092 396.222 453.962 395.352C455.532 394.973 456.512 393.41 456.17 391.832C455.827 390.254 454.288 389.237 452.701 389.542C449.324 390.137 445.9 390.426 442.47 390.407C423.643 390.407 411.55 378.862 411.55 360.774C411.55 343.081 423.775 330.577 440.928 330.577C458.269 330.577 470.005 341.05 470.005 356.713C470.005 366.528 466.695 372.845 461.485 372.845C458.475 372.845 456.802 371.021 456.802 367.994V343.682H449.297V348.91H448.545C446.815 345.093 442.884 342.761 438.257 342.761C429.248 342.761 423.079 350.075 423.079 360.586C423.079 371.529 429.21 378.881 438.389 378.881C443.542 378.881 447.379 376.493 449.241 372.131H449.993C450.689 376.324 454.714 379.144 459.999 379.144ZM439.78 371.924C434.458 371.924 431.185 367.712 431.185 360.755C431.185 353.779 434.401 349.68 439.875 349.68C445.385 349.68 448.921 353.911 448.921 360.755C448.921 367.599 445.385 371.924 439.78 371.924Z" fill="white"/>
</svg>
