<svg width="668" height="439" viewBox="0 0 668 439" fill="none" xmlns="http://www.w3.org/2000/svg">
<path d="M138.24 191.029C104.489 191.183 77.0175 191.678 77.0175 191.678C77.0175 191.678 109.672 148.753 138.117 164.657C166.563 180.56 199.24 191.119 199.24 191.119C199.24 191.119 171.991 190.875 138.24 191.029Z" fill="#F2F2F2"/>
<path d="M515.906 204.178C519.742 204.178 522.851 201.069 522.851 197.234C522.851 193.399 519.742 190.29 515.906 190.29C512.071 190.29 508.962 193.399 508.962 197.234C508.962 201.069 512.071 204.178 515.906 204.178Z" fill="#FF6584"/>
<path d="M464.503 307.393L517.263 246.808L518.891 248.226L466.131 308.811L464.503 307.393Z" fill="#3F3D56"/>
<path d="M518.684 258.345C524.821 258.345 529.795 253.371 529.795 247.234C529.795 241.098 524.821 236.123 518.684 236.123C512.548 236.123 507.573 241.098 507.573 247.234C507.573 253.371 512.548 258.345 518.684 258.345Z" fill="#3F3D56"/>
<path d="M485.748 284.734C485.748 284.734 507.081 257.549 479.795 238.9L485.748 284.734Z" fill="#3F3D56"/>
<path d="M131.987 332.518C171.082 405.006 254.055 436.123 254.055 436.123C254.055 436.123 273.643 349.715 234.548 277.228C195.453 204.74 112.48 173.623 112.48 173.623C112.48 173.623 92.8922 260.031 131.987 332.518Z" fill="#3F3D56"/>
<path d="M158.436 308.984C229.005 351.562 256.184 436.134 256.184 436.134C256.184 436.134 168.947 451.673 98.3769 409.095C27.8072 366.517 0.62854 281.945 0.62854 281.945C0.62854 281.945 87.866 266.406 158.436 308.984Z" fill="#111B47"/>
<path d="M438.398 309.359C367.445 351.355 339.517 435.775 339.517 435.775C339.517 435.775 426.628 452.106 497.581 410.109C568.534 368.113 596.462 283.693 596.462 283.693C596.462 283.693 509.352 267.363 438.398 309.359Z" fill="#3F3D56"/>
<path d="M464.155 335.04C424.426 407.144 341.194 437.512 341.194 437.512C341.194 437.512 322.374 350.976 362.102 278.872C401.831 206.768 485.063 176.4 485.063 176.4C485.063 176.4 503.883 262.936 464.155 335.04Z" fill="#111B47"/>
<path d="M319.908 137.568C311.554 130.008 310.384 117.305 317.217 108.345C316.781 108.754 316.354 109.179 315.946 109.631C307.921 118.511 308.61 132.218 317.486 140.247C326.362 148.276 340.063 147.586 348.089 138.706C348.497 138.255 348.876 137.788 349.24 137.312C341.016 145.014 328.265 145.125 319.908 137.568Z" fill="#2F2E41"/>
<path d="M299.934 152.79C324.864 152.79 345.073 132.58 345.073 107.651C345.073 82.7211 324.864 62.5117 299.934 62.5117C275.005 62.5117 254.795 82.7211 254.795 107.651C254.795 132.58 275.005 152.79 299.934 152.79Z" fill="#2F2E41"/>
<path d="M287.07 165.333L288.423 161.853L263.79 182.464L234.014 199.059C234.014 199.059 218.855 141.242 217.773 140.171C216.69 139.1 197.2 98.4141 188.538 117.687C179.876 136.959 205.321 148.201 205.321 148.201C205.321 148.201 206.133 218.6 232.119 218.064C258.106 217.529 290.318 194.241 290.859 192.1C291.401 189.959 287.07 165.333 287.07 165.333Z" fill="#FFB8B8"/>
<path d="M294.378 154.178C309.336 154.178 321.462 142.053 321.462 127.095C321.462 112.137 309.336 100.012 294.378 100.012C279.421 100.012 267.295 112.137 267.295 127.095C267.295 142.053 279.421 154.178 294.378 154.178Z" fill="#FFB8B8"/>
<path d="M299.072 146.887C299.072 146.887 306.105 156.009 303.941 157.082C301.777 158.155 289.334 158.692 281.759 167.815C274.185 176.937 290.957 200.012 290.957 200.012L354.795 157.619L328.827 149.033C328.827 149.033 310.974 139.374 311.515 129.178L299.072 146.887Z" fill="#FFB8B8"/>
<path d="M385.351 438.901H313.642C309.581 409.265 307.703 382.107 307.703 382.107C307.703 382.107 306.654 409.425 303.866 438.901H211.74C224.799 351.622 286.709 256.978 286.709 256.978C286.709 256.978 287.248 244.085 288.864 241.935C290.48 239.792 279.714 239.255 274.866 223.144C271.91 213.309 274.567 206.874 277.093 203.358C277.96 202.091 279.027 200.973 280.252 200.046C280.252 200.046 281.33 188.773 280.252 187.161C280.114 186.95 281.177 186.209 283.142 185.083C284.78 184.139 287.044 182.926 289.752 181.531C305.264 173.505 335.291 159.305 345.577 154.467C347.833 153.4 349.144 152.79 349.144 152.79L367.444 159.232C381.973 164.063 381.973 194.678 381.973 194.678L381.151 195.928L359.189 229.122L346.45 248.385C349.682 250.528 343.225 263.958 343.225 263.958C343.225 263.958 352.426 277.149 359.91 297.283C364.141 308.489 367.027 320.156 368.506 332.039C369.449 339.741 369.635 347.516 369.06 355.254C367.065 381.126 375.931 412.57 385.351 438.901Z" fill="#2F2E41"/>
<path d="M367.227 161.726C366.033 161.047 364.605 160.935 363.322 161.42C362.04 161.906 361.034 162.938 360.574 164.242C358.972 168.698 357.348 177.987 357.927 197.3C358.991 232.818 359.523 257.034 359.523 257.034V310.849C359.523 310.849 336.116 362.511 348.884 362.511C361.651 362.511 370.694 321.612 370.694 321.612C370.694 321.612 382.397 259.725 378.674 248.962C378.674 248.962 389.174 174.608 367.227 161.726Z" fill="#FFB8B8"/>
<path d="M291.601 119.456C304.257 119.456 314.517 112.305 314.517 103.484C314.517 94.6627 304.257 87.5117 291.601 87.5117C278.944 87.5117 268.684 94.6627 268.684 103.484C268.684 112.305 278.944 119.456 291.601 119.456Z" fill="#2F2E41"/>
<path d="M328.406 90.2897C340.679 90.2897 350.629 80.3404 350.629 68.0674C350.629 55.7944 340.679 45.8452 328.406 45.8452C316.133 45.8452 306.184 55.7944 306.184 68.0674C306.184 80.3404 316.133 90.2897 328.406 90.2897Z" fill="#2F2E41"/>
<path d="M343.684 83.879C332.131 83.8774 322.506 75.1923 321.545 63.9004C321.494 64.4998 321.462 65.1044 321.462 65.7166C321.462 77.7536 331.411 87.5115 343.684 87.5115C355.957 87.5115 365.906 77.7536 365.906 65.7166C365.906 65.1044 365.874 64.4999 365.824 63.9004C364.862 75.1923 355.238 83.8775 343.684 83.879Z" fill="#2F2E41"/>
<path d="M320.614 122.26C321.625 122.018 321.998 119.947 321.445 117.634C320.893 115.321 319.625 113.642 318.613 113.884C317.601 114.126 317.229 116.197 317.781 118.509C318.334 120.822 319.602 122.501 320.614 122.26Z" fill="#FFB8B8"/>
<path d="M320.073 122.234C320.84 122.234 321.462 121.612 321.462 120.845C321.462 120.078 320.84 119.456 320.073 119.456C319.306 119.456 318.684 120.078 318.684 120.845C318.684 121.612 319.306 122.234 320.073 122.234Z" fill="#F2F2F2"/>
<path fill-rule="evenodd" clip-rule="evenodd" d="M56.1841 204.873C56.1841 209.859 60.226 213.901 65.2119 213.901C70.1955 213.895 74.2341 209.857 74.2396 204.873C74.2396 199.887 70.1978 195.845 65.2119 195.845C60.226 195.845 56.1841 199.887 56.1841 204.873ZM57.6887 204.873C57.6887 200.718 61.0569 197.35 65.2119 197.35C69.3648 197.355 72.7303 200.72 72.735 204.873C72.735 209.028 69.3668 212.396 65.2119 212.396C61.0569 212.396 57.6887 209.028 57.6887 204.873Z" fill="#3F3D56"/>
<path fill-rule="evenodd" clip-rule="evenodd" d="M422.851 150.012H442.295V130.567H422.851V150.012ZM440.8 148.516H424.347V132.063H440.8V148.516Z" fill="#3F3D56"/>
<path d="M606.295 250.752C572.545 250.906 545.073 251.401 545.073 251.401C545.073 251.401 577.728 208.476 606.173 224.379C634.619 240.283 667.295 250.842 667.295 250.842C667.295 250.842 640.046 250.597 606.295 250.752Z" fill="#F2F2F2"/>
<path d="M502.129 104.918C468.378 105.072 440.906 105.567 440.906 105.567C440.906 105.567 473.561 62.6425 502.006 78.5459C530.452 94.4492 563.128 105.008 563.128 105.008C563.128 105.008 535.879 104.764 502.129 104.918Z" fill="#F2F2F2"/>
<path d="M183.07 123.807L105.123 83.5688C99.8006 80.821 97.7044 74.2615 100.441 68.9177L118.805 33.0661C119.343 32.0139 120.29 31.2304 121.421 30.8992L182.858 12.9151C187.958 11.422 193.331 14.1956 195.089 19.2293L215.274 77.036C216.293 79.9544 216.073 83.165 214.664 85.9153L197.663 119.107C196.349 121.673 194.073 123.61 191.336 124.492C188.599 125.373 185.626 125.127 183.07 123.807Z" fill="#F2F2F2"/>
<path opacity="0.1" d="M185.832 110.534L107.303 76.8657C104.772 75.5591 107.145 77.5675 108.446 75.0265L118.318 34.7339L214.517 84.4108L190.197 114.61C188.896 117.151 188.363 111.841 185.832 110.534Z" fill="black"/>
<path d="M117.459 85.5569C113.439 83.4895 111.855 78.5542 113.923 74.5336L143.278 17.4452C145.346 13.4246 150.281 11.8413 154.302 13.9087L211.39 43.2643C215.411 45.3317 216.994 50.267 214.927 54.2876L185.571 111.376C183.504 115.397 178.568 116.98 174.548 114.912L117.459 85.5569Z" fill="#111B47"/>
<path opacity="0.1" d="M202.017 78.6026L181.82 118.067L110.351 81.142L130.548 41.6782L157.402 77.4945L202.017 78.6026Z" fill="black"/>
<path d="M156.533 80.0907L121.861 34.1816C121.425 33.6043 120.723 33.2913 120.001 33.3529C119.279 33.4145 118.639 33.842 118.308 34.4847L98.5782 72.7564C97.7811 74.3027 97.6324 76.1016 98.1649 77.7573C98.6974 79.413 99.8675 80.7898 101.418 81.585L187.379 125.675C188.929 126.47 190.733 126.619 192.393 126.087C194.053 125.556 195.433 124.389 196.23 122.843L215.622 85.2267C216.026 84.4424 215.998 83.5059 215.547 82.7475C215.095 81.9891 214.285 81.5154 213.401 81.4936L156.533 80.0907Z" fill="#F2F2F2"/>
<path d="M149.813 19.9175L169.85 30.2209L168.393 33.0544L148.355 22.751L149.813 19.9175Z" fill="#F2F2F2"/>
<path d="M142.885 29.4067L202.39 60.0046L201.557 61.6238L142.053 31.0259L142.885 29.4067Z" fill="#F2F2F2"/>
<path d="M140.075 34.8716L199.58 65.4695L198.747 67.0886L139.243 36.4907L140.075 34.8716Z" fill="#F2F2F2"/>
<path d="M137.265 40.3364L196.77 70.9343L195.937 72.5535L136.433 41.9556L137.265 40.3364Z" fill="#F2F2F2"/>
<path d="M157.675 17.0694C160.036 12.4781 158.234 6.84566 153.651 4.48903C149.068 2.1324 143.439 3.94398 141.078 8.53531C138.717 13.1266 140.519 18.7591 145.102 21.1157C149.685 23.4723 155.314 21.6607 157.675 17.0694Z" fill="white"/>
<path fill-rule="evenodd" clip-rule="evenodd" d="M139.361 7.4315C142.168 1.97537 148.869 -0.173301 154.328 2.6323C159.772 5.45046 161.917 12.1338 159.13 17.5915C156.322 23.0476 149.622 25.1963 144.163 22.3907C138.704 19.5851 136.554 12.8876 139.361 7.4315ZM142.045 9.06936L144.506 16.736L158.324 12.3131L157.634 10.1627L145.97 13.9029L144.197 8.37948L142.045 9.06936Z" fill="#57B894"/>
</svg>
